<?xml version="1.0" encoding="UTF-8"?>
<svg id="Layer_1" xmlns="http://www.w3.org/2000/svg" version="1.1" viewBox="0 0 790.91 424.39">
  <!-- Generator: Adobe Illustrator 29.8.1, SVG Export Plug-In . SVG Version: 2.1.1 Build 2)  -->
  <defs>
    <style>
      .st0 {
        fill: #fff;
      }
    </style>
  </defs>
  <path class="st0" d="M688.14,145.16c3.33,8.46,6.69,17,8.55,25.96,6.27,30.14-2.47,76.68,39.98,80.02,14.99,1.18,31.28-3.24,42.49-13.47,5.78-5.27,8.13-7.31,1.01-13.03-12.02-9.66-31.62-.37-45.25-6.75-21.73-10.18-7.82-55.05,13.18-59.29,12.5-2.53,26.29,13.45,31.86,23.26,12.71,22.39,17.59,62.37-3.34,81.27-20.78,18.76-63.74,22.19-76.64-7.29l-4.81-14.67c-1.98,23.63-21.36,45.38-46.24,33.72-10.37-4.86-12.06-13.09-13.8-23.21-.24-1.41.94-2.94-1.45-2.51-9.59,13.59-21.24,25.91-37.51,31-1.22,1.51,11.23,4.49,12.51,4.97,19.02,7.19,23.2,15.18,17.99,36.02-8.02,32.08-59.65,52.6-87.99,63.01-137.09,50.38-337.32,57.88-471.88-3.16-28.35-12.86-46.77-32.13-66.63-55.37-1.04-2.53,3.25-1.26,4.02-1.01,17.55,5.7,41.25,21.54,59.3,29.7,137.61,62.27,338.83,53.42,479.2,2.84,25.49-9.18,53.88-20.65,73.44-39.59.61-2.72-8.93-5.26-10.96-5.93-17.25-5.71-36.1-7.51-53.21-12.79-2.6-.8-10.41-2.42-10.33-5.77l5.76-24.72c25.4-6.3,52.38-8.81,73.25-26.25,4.32-3.61,18.12-20.33,21.25-20.83,6.49-1.03,1.26,9.37,1.28,12.37.12,22.65,42.49,23.07,48.99,1.95-1.69-14.58-3.54-29.09-6.47-43.47-1.14-5.59-5.95-18.31-6.04-22.48-.03-1.44,5.02-21.23,5.77-22.78.66-1.36,1.09-2.05,2.75-1.73h-.03ZM762.15,193.14c-4.49-8.05-19.42-12.62-23.89-2.32-.48,5.5,19.92,3.02,23.89,2.32Z"/>
  <path class="st0" d="M116.16,229.15c8.79-5.45,12.42-16.89,18.57-23.92,1-1.14,1.54-2.47,3.42-2.07-.93,9.54-3.02,19.15-8.17,27.32-2.35,3.72-9.73,10.01-9.91,13.16,5.29,25.69,6.06,58.41,19.9,81.2,9.59,15.79,31.82,18.05,48.7,18.3,56.65.85,111.84-16.77,161.51-42.47,31.78-16.44,85.54-56.82,116.93-64.07,12.72-2.94,26.42.09,25.06,16.04-1.35,15.83-25.32,36.17-34.97,49.04-2.33,3.11-12.42,19.99-13.56,20.45-1.98.81-1.52-1.33-1.52-2.51-.01-9,11.37-25.78,17.06-32.95,3.13-3.95,19.62-19.57,18.89-22.92-1.64-2.49-4.46-2.74-7.27-2.54-25.36,1.84-92.08,48.37-118.62,62.46-52.38,27.81-128.35,54.25-188.25,44.2-37.2-6.24-41.71-42.59-47.78-73.72l-9.45,17.04c-9.09,8.86-36.38,19.56-48.28,14.19-11.49-5.18-8.54-23.98-5.03-33.49,8.62-23.36,30.65-36.93,48.6-52.39.34-1.87-5.63-10.92-5.72-13.82-.2-6.33,6.37-17.34,5.88-24.53,1.7-1.81,6.03,7.02,6.52,7.97,3.13,6,5.66,13.48,7.48,20.03h0ZM61.16,298.14c10.9,7.37,46.77-5.81,51.48-16,2.27-4.92-4.29-20.94-4.98-26.99-1.01-1.62-2.34-.13-3.43.59-10.95,7.18-29.72,23.16-37.49,33.51-.9,1.2-6.08,8.24-5.58,8.9h0Z"/>
  <path class="st0" d="M542.15,178.65c1.23-13.95,10.77-40.2,22.5-48.5,17.26-12.2,26.46,17.84,27.48,30.51,2.52,31.43-14.03,51.09-42.87,60.59-1.01,1.15,1.36,8.15-1.62,9.89l-2.56-7.92c-12.97,1.59-27.38,1.98-39.25-4.25-23.74-12.46-16.1-60.4-24.17-81.82-5.84,6.45-6.77,16.38-11.12,23.88-5.56,9.59-15.27,14.7-26.39,13.12,11.82,37.21-11.69,59.67-38.68,79.81-17.53,13.07-54.93,38.66-74.78,45.22-12.99,4.3-57.4,8.31-71.05,6.97-1.37-.13-5.04-.36-4.5-2.49,39.52-13.73,77.11-29.42,112.92-51.09,18.47-11.18,40.49-25.17,56.56-39.44,4.16-3.69,12.9-10.9,12.46-16.33-1.09-13.34-12.33-31.6-18.91-43.17l4.99-25.46c1.68-1.24,6.24,6.65,7.48,8.01,13.9,15.24,31.38,18.28,41.69-2.34,2.67-5.34,3.72-11.7,6.04-16.95,5.98-13.5,11.05-3.36,12.68,5.88,3.95,22.47-2.15,62.33,24.83,72.17,8.37,3.05,17.47,3.49,26.27,3.23.4-6.33-.55-13.24,0-19.5v-.02ZM550.16,196.15c6.3-1.48,27.77-11.34,29.55-16.95s-5.15-24.23-11.47-25.6c-5.25-1.14-12.06,12.48-13.58,16.56-2.94,7.92-4.33,17.6-4.51,25.98h.01Z"/>
  <path class="st0" d="M329.15,159.16c3.67,11.28,8.95,22.33,11.51,33.98,9.41,42.76-16.65,62.2-49.84,81.18-53.73,30.74-133.42,44.64-139.66-39.68-2.34-31.65,10.8-70.21,29.5-95.48l2.44,1.48c-3.24,10.16-9.02,19.22-12.71,29.27-6.41,17.45-12.13,40.02-8.97,58.47,11.17,65.32,84.57,44.31,125.39,21.95,15.33-8.4,33-19.97,43.9-33.23-3.71-11.88-9.31-23.25-12.84-35.17-2.01-6.79-2.98-17.04-5.22-22.78-.91-2.34-3.95-4.28-4.12-5.44-.25-1.69,3.7-18,4.49-21.16.37-1.49.46-5.77,2.6-5.38,2.88,3.81,22.56,30.52,22.49,32.5-.13,3.38-7.7-1.47-8.98-.5h.02Z"/>
  <path class="st0" d="M367.14.15l18.03,56.5c.54,1.92-1.42,1.93-2.48,1.46-1.6-.71-6.09-8.78-8.53-9.96l10.03,127.46c.22,15.31-1.87,31.66-8.56,45.53l-2.48-8.5c-1.39-38.39-5.75-76.71-9-115-1.61-18.94-1.45-40.51-4.02-58.98-.58-4.16-4.61-13.18-4.61-15.01,0-1.21,8.2-20.41,9.38-22.21.62-.95-.12-1.8,2.23-1.29h0Z"/>
  <path class="st0" d="M730.03,310.27c1.98,3.1-10,20.01-9.92,24.85-2.39,1.68-20.87-12.75-25.32-12.92-3.12,2.47-9.1,19.02-12.11,18.99l-21.45-12.69,11.4-24.23,23.02,13.87,12.1-19.9,22.27,12.04h0Z"/>
  <path class="st0" d="M524.14,323.15l-24.5-13.9-11.97,19.84-21.39-12.06c-1.66-2.62,9.15-20.57,9.92-24.84l24.39,12.95,12.05-19.75,22.44,13.35-10.94,24.4h0Z"/>
  <path class="st0" d="M655.07,143.08l-23.82-11.58c-.61-2.13,9.85-23.97,11.39-24.1l22.43,12.35-10,23.32h0Z"/>
  <path class="st0" d="M774.03,110.27c1.69,2.67-9.02,20.63-9.96,24.81l-23.85-11.01,11.53-24.85,22.28,11.05h0Z"/>
  <polygon class="st0" points="249.14 104.15 225.23 91.55 236.75 68.23 260.02 80.63 249.14 104.15"/>
</svg>