<svg width="515" height="178" viewBox="0 0 515 178" fill="none" xmlns="http://www.w3.org/2000/svg">
<path d="M45 65.1875C45 66.9375 45.125 68.2292 45.375 69.0625C45.625 69.8958 45.8958 70.6458 46.1875 71.3125C46.5208 71.9375 46.8125 72.6458 47.0625 73.4375C47.3542 74.1875 47.5 75.375 47.5 77C47.5 78.125 47.375 79.3958 47.125 80.8125C46.9167 82.1875 46.5 83.625 45.875 85.125C45.25 86.5833 44.375 88.0417 43.25 89.5C42.125 90.9167 40.6875 92.1875 38.9375 93.3125L63.4375 79.3125C63.7292 79.1458 64.0208 79.0625 64.3125 79.0625C64.7708 79.0625 65.1667 79.25 65.5 79.625C65.875 79.9583 66.0625 80.4167 66.0625 81C66.0625 81.4583 65.8542 82.0208 65.4375 82.6875C65.0625 83.3542 64.3958 83.9583 63.4375 84.5C58.3125 87.4167 53.8958 89.9583 50.1875 92.125C46.5208 94.25 43.375 96.0833 40.75 97.625C38.1667 99.1667 36.0417 100.458 34.375 101.5C32.7083 102.5 31.3125 103.333 30.1875 104C28.1875 105.208 26.2917 106.021 24.5 106.438C22.7083 106.854 20.9375 107.062 19.1875 107.062C17.8542 107.062 16.875 106.833 16.25 106.375C15.6667 105.917 15.375 105.417 15.375 104.875C15.4167 104.292 15.75 103.771 16.375 103.312C17 102.812 17.8958 102.562 19.0625 102.562C21.1042 102.562 23.0833 101.875 25 100.5C26.9167 99.0833 28.6042 97.1875 30.0625 94.8125C31.5625 92.3958 32.75 89.5833 33.625 86.375C34.5417 83.1667 35 79.7708 35 76.1875C35 75.6458 35.1042 74.6042 35.3125 73.0625C35.5625 71.5208 35.9375 69.8542 36.4375 68.0625C36.9375 66.2708 37.5833 64.5208 38.375 62.8125C39.2083 61.1042 40.1875 59.8125 41.3125 58.9375L3 84.5C2.58333 84.7917 2.14583 84.9375 1.6875 84.9375C1.22917 84.9375 0.854167 84.7708 0.5625 84.4375C0.270833 84.1042 0.125 83.6875 0.125 83.1875C0.125 82.6042 0.354167 81.9583 0.8125 81.25C1.22917 80.5417 1.95833 79.8958 3 79.3125C9.70833 74.7708 15.3333 71 19.875 68C24.4583 64.9583 28.1875 62.5 31.0625 60.625L39.8125 54.6875C41.1042 54.1458 42.4583 53.7292 43.875 53.4375C45.2917 53.1042 46.6042 52.9375 47.8125 52.9375C49.1458 52.9375 50.2292 53.1667 51.0625 53.625C51.9375 54.0417 52.375 54.7292 52.375 55.6875C52.375 56.0208 51.9792 56.5625 51.1875 57.3125C50.4375 58.0625 49.6042 58.9167 48.6875 59.875C47.7708 60.7917 46.9167 61.7292 46.125 62.6875C45.375 63.6458 45 64.4792 45 65.1875ZM63.5 84.5C63.2083 84.6667 62.9375 84.75 62.6875 84.75C62.2708 84.75 61.9583 84.5833 61.75 84.25C61.5417 83.875 61.4375 83.4167 61.4375 82.875C61.4375 82.2917 61.5833 81.6667 61.875 81C62.1667 80.3333 62.7083 79.7708 63.5 79.3125L86.625 65.6875C89.5 64.0208 92.5625 62.5833 95.8125 61.375C99.0625 60.1667 102.354 59.1875 105.688 58.4375C109.062 57.6458 112.396 57.0833 115.688 56.75C118.979 56.375 122.083 56.1875 125 56.1875C126.667 56.1875 128.229 56.3125 129.688 56.5625C131.146 56.7708 132.396 57.1042 133.438 57.5625C134.521 57.9792 135.354 58.5 135.938 59.125C136.562 59.75 136.875 60.4583 136.875 61.25C136.875 61.8333 136.667 62.25 136.25 62.5C135.833 62.75 135.333 62.9375 134.75 63.0625C134.208 63.1458 133.625 63.2083 133 63.25C132.417 63.2917 131.958 63.3958 131.625 63.5625C131.375 64.3542 130.979 65.5833 130.438 67.25C129.896 68.875 129.354 70.5625 128.812 72.3125C128.271 74.0208 127.771 75.5625 127.312 76.9375C126.896 78.2708 126.667 79.0417 126.625 79.25C126.083 81 125.333 83.2292 124.375 85.9375C123.458 88.6042 122.438 92.1875 121.312 96.6875C121.354 96.6875 121.812 96.4583 122.688 96C123.604 95.5 124.771 94.8542 126.188 94.0625C127.646 93.2708 129.292 92.3542 131.125 91.3125C132.958 90.2708 134.854 89.2083 136.812 88.125L151.75 79.3125C152.333 78.9792 152.833 78.8125 153.25 78.8125C153.708 78.8125 154.062 78.9792 154.312 79.3125C154.562 79.6042 154.688 79.9792 154.688 80.4375C154.688 81.0208 154.458 81.7083 154 82.5C153.542 83.25 152.792 83.9167 151.75 84.5L118.5 104C117.667 104.5 116.896 104.854 116.188 105.062C115.479 105.271 114.833 105.375 114.25 105.375C113.417 105.375 112.708 105.188 112.125 104.812C111.542 104.438 111.062 103.917 110.688 103.25C110.312 102.583 110.021 101.833 109.812 101C109.646 100.125 109.562 99.2083 109.562 98.25C109.562 97.2083 109.667 96.1667 109.875 95.125C110.083 94.0833 110.354 93.0833 110.688 92.125C109.479 94.5 108.062 96.5625 106.438 98.3125C104.854 100.062 103.146 101.542 101.312 102.75C99.5208 103.917 97.6667 104.792 95.75 105.375C93.8333 105.958 91.9583 106.25 90.125 106.25C88.2917 106.25 86.5625 105.958 84.9375 105.375C83.3125 104.792 81.875 103.938 80.625 102.812C79.4167 101.646 78.4583 100.208 77.75 98.5C77.0417 96.7917 76.6875 94.8125 76.6875 92.5625C76.6875 91.2292 76.8125 89.75 77.0625 88.125C77.3542 86.5 77.7292 84.8542 78.1875 83.1875C78.6458 81.5208 79.1667 79.8958 79.75 78.3125C80.3333 76.6875 80.9375 75.2083 81.5625 73.875L63.5 84.5ZM120.312 61.5C116.979 61.5 113.792 62.0625 110.75 63.1875C107.708 64.3125 104.875 65.7917 102.25 67.625C99.6667 69.4583 97.3125 71.5625 95.1875 73.9375C93.1042 76.2708 91.3125 78.6875 89.8125 81.1875C88.3542 83.6458 87.2083 86.0833 86.375 88.5C85.5833 90.9167 85.1875 93.0833 85.1875 95C85.1875 97.125 85.6458 98.8542 86.5625 100.188C87.5208 101.479 89.0625 102.125 91.1875 102.125C92.4375 102.125 93.7917 101.75 95.25 101C96.75 100.208 98.25 99.1875 99.75 97.9375C101.292 96.6458 102.792 95.2083 104.25 93.625C105.75 92 107.125 90.375 108.375 88.75C109.625 87.0833 110.708 85.4792 111.625 83.9375C112.583 82.3542 113.271 80.9792 113.688 79.8125L120.312 61.5ZM199.938 50.9375C206.562 47.1458 212.5 43.4583 217.75 39.875C223.042 36.25 227.521 32.7708 231.188 29.4375C234.896 26.0625 237.729 22.8125 239.688 19.6875C241.646 16.5625 242.625 13.5625 242.625 10.6875C242.625 9.97917 242.542 9.20833 242.375 8.375C242.208 7.5 241.771 6.70833 241.062 6C240.354 5.25 239.271 4.625 237.812 4.125C236.396 3.625 234.438 3.375 231.938 3.375C229.062 3.375 226.396 4.125 223.938 5.625C221.521 7.08333 219.271 9.0625 217.188 11.5625C215.104 14.0208 213.188 16.875 211.438 20.125C209.729 23.375 208.167 26.7708 206.75 30.3125C205.333 33.8125 204.062 37.3542 202.938 40.9375C201.812 44.4792 200.812 47.8125 199.938 50.9375ZM223.562 79.3125C224.104 79.1042 224.479 79 224.688 79C225.188 79 225.583 79.1667 225.875 79.5C226.208 79.8333 226.375 80.2708 226.375 80.8125C226.375 81.3958 226.167 82.0208 225.75 82.6875C225.333 83.3125 224.604 83.9167 223.562 84.5L207.5 94.6875C205.25 96.1042 202.917 97.5833 200.5 99.125C198.125 100.667 195.75 102.208 193.375 103.75C191.042 105.292 188.792 106.771 186.625 108.188C184.5 109.646 182.562 110.979 180.812 112.188C178.812 120.979 176.312 128.5 173.312 134.75C170.354 141 167.229 146.125 163.938 150.125C160.688 154.125 157.458 157.042 154.25 158.875C151.083 160.75 148.312 161.688 145.938 161.688C143.812 161.688 142.125 161.021 140.875 159.688C139.583 158.354 138.938 156.438 138.938 153.938C138.938 151.938 139.708 149.312 141.25 146.062C142.792 142.854 144.938 139.333 147.688 135.5C150.438 131.667 153.667 127.667 157.375 123.5C161.125 119.375 165.188 115.375 169.562 111.5C170.062 108.875 170.771 105.854 171.688 102.438C172.604 99.0208 173.646 95.3542 174.812 91.4375C175.979 87.5208 177.229 83.4375 178.562 79.1875C179.896 74.9375 181.229 70.6667 182.562 66.375L151.75 84.5C151.208 84.7083 150.833 84.8125 150.625 84.8125C150.083 84.8125 149.625 84.6458 149.25 84.3125C148.875 83.9792 148.688 83.5417 148.688 83C148.688 82.5 148.917 81.9375 149.375 81.3125C149.833 80.6875 150.625 80.0208 151.75 79.3125C154.792 77.5208 157.854 75.7292 160.938 73.9375C164.021 72.1042 166.979 70.3542 169.812 68.6875C172.688 66.9792 175.354 65.4167 177.812 64C180.271 62.5417 182.375 61.2917 184.125 60.25C184.125 60.25 184.208 59.8333 184.375 59C184.5 58.2083 184.688 57.1458 184.938 55.8125C185.229 54.4375 185.583 52.875 186 51.125C186.417 49.375 186.854 47.5833 187.312 45.75C187.812 43.9167 188.333 42.1042 188.875 40.3125C189.458 38.4792 190.062 36.8333 190.688 35.375C191.771 32.7917 193.104 30.125 194.688 27.375C196.312 24.5833 198.125 21.8958 200.125 19.3125C202.125 16.6875 204.312 14.2292 206.688 11.9375C209.062 9.60417 211.583 7.58333 214.25 5.875C216.917 4.125 219.688 2.75 222.562 1.75C225.479 0.708333 228.458 0.1875 231.5 0.1875C234.542 0.1875 237.146 0.5 239.312 1.125C241.479 1.70833 243.25 2.5 244.625 3.5C246 4.5 247 5.625 247.625 6.875C248.292 8.08333 248.625 9.3125 248.625 10.5625C248.625 13.8958 247.896 17.0625 246.438 20.0625C245.021 23.0208 243.083 25.8542 240.625 28.5625C238.208 31.2708 235.354 33.8542 232.062 36.3125C228.812 38.7708 225.354 41.1458 221.688 43.4375C218.062 45.7292 214.333 47.9583 210.5 50.125C206.667 52.25 202.938 54.3542 199.312 56.4375C197.729 61.3125 196.229 65.8958 194.812 70.1875C193.438 74.4375 192.104 78.4792 190.812 82.3125C189.562 86.1042 188.333 89.7292 187.125 93.1875C185.958 96.6458 184.792 100 183.625 103.25C185.25 102.25 187.062 101.146 189.062 99.9375C191.062 98.7292 193.146 97.4792 195.312 96.1875C197.479 94.8542 199.688 93.5208 201.938 92.1875C204.188 90.8125 206.354 89.5 208.438 88.25L223.562 79.3125ZM145.375 151.25C145.5 153.083 146.125 154 147.25 154C148.292 154 149.646 153.25 151.312 151.75C152.979 150.25 154.75 148.104 156.625 145.312C158.542 142.521 160.438 139.167 162.312 135.25C164.188 131.375 165.854 127.021 167.312 122.188C165.688 123.729 164 125.396 162.25 127.188C160.542 129.021 158.875 130.875 157.25 132.75C155.625 134.625 154.083 136.479 152.625 138.312C151.208 140.146 149.958 141.875 148.875 143.5C147.792 145.167 146.938 146.667 146.312 148C145.688 149.333 145.375 150.417 145.375 151.25ZM293.875 84.5C287.417 88.2083 281.938 91.4375 277.438 94.1875C272.938 96.8958 269.104 99.1458 265.938 100.938C262.771 102.688 260.083 104 257.875 104.875C255.708 105.708 253.729 106.125 251.938 106.125C250.188 106.125 248.688 105.917 247.438 105.5C246.229 105.083 245.229 104.521 244.438 103.812C243.646 103.104 243.062 102.25 242.688 101.25C242.354 100.25 242.188 99.1667 242.188 98C242.188 97.125 242.375 96.2292 242.75 95.3125C243.125 94.3958 243.583 93.4583 244.125 92.5C244.708 91.5417 245.312 90.5417 245.938 89.5C246.562 88.4167 247.146 87.2708 247.688 86.0625L257.188 64.8125L223.625 84.5C223.083 84.7083 222.708 84.8125 222.5 84.8125C222 84.8125 221.562 84.6458 221.188 84.3125C220.771 83.9792 220.562 83.5417 220.562 83C220.562 82.5 220.792 81.9375 221.25 81.3125C221.667 80.6875 222.458 80.0208 223.625 79.3125L239.812 69.875C241.938 68.625 244.083 67.375 246.25 66.125C248.417 64.875 250.438 63.7083 252.312 62.625C254.229 61.5417 255.938 60.5833 257.438 59.75C258.979 58.875 260.167 58.2083 261 57.75H269.062C269.229 57.875 269.375 58.0833 269.5 58.375C269.625 58.6667 269.688 59.1042 269.688 59.6875C269.688 60.7708 269.375 62.3125 268.75 64.3125C268.125 66.2708 267.333 68.4792 266.375 70.9375C265.458 73.3958 264.417 75.9792 263.25 78.6875C262.125 81.3542 261.062 83.8958 260.062 86.3125C259.062 88.6875 258.021 91.0625 256.938 93.4375C255.854 95.8125 254.771 98.25 253.688 100.75C254.812 100.75 256.583 100.188 259 99.0625C261.458 97.9375 264.417 96.4167 267.875 94.5C271.375 92.5417 275.312 90.2708 279.688 87.6875C284.104 85.0625 288.833 82.2708 293.875 79.3125C294.042 79.1458 294.354 79.0625 294.812 79.0625C295.312 79.0625 295.771 79.2292 296.188 79.5625C296.646 79.8958 296.875 80.3542 296.875 80.9375C296.875 81.4375 296.646 82 296.188 82.625C295.771 83.2083 295 83.8333 293.875 84.5ZM276.625 35.875C276.875 35.875 277.333 35.8958 278 35.9375C278.708 35.9375 279.5 35.9792 280.375 36.0625C281.25 36.1458 282.167 36.2917 283.125 36.5C284.083 36.6667 284.958 36.9375 285.75 37.3125C286.542 37.6458 287.208 38.0833 287.75 38.625C288.292 39.1667 288.583 39.8333 288.625 40.625L279.562 47.5L275.438 49.4375C274.688 49.4375 274.104 49.2292 273.688 48.8125C273.271 48.3958 272.958 47.9583 272.75 47.5L276.625 35.875ZM369.438 64.5C367.854 64.5 365.875 64.9583 363.5 65.875C361.125 66.75 358.521 67.9792 355.688 69.5625C352.854 71.1042 349.896 72.9375 346.812 75.0625C343.771 77.1875 340.771 79.5 337.812 82C334.896 84.5 332.104 87.1458 329.438 89.9375C326.812 92.6875 324.521 95.4583 322.562 98.25C322.354 98.4583 322.25 98.9375 322.25 99.6875C322.25 100.396 322.125 101.146 321.875 101.938C321.667 102.729 321.229 103.438 320.562 104.062C319.896 104.688 318.792 105 317.25 105C316.167 105 315.312 104.875 314.688 104.625C314.104 104.375 313.646 104.042 313.312 103.625C313.021 103.167 312.833 102.646 312.75 102.062C312.667 101.438 312.625 100.75 312.625 100C312.625 99.25 312.833 98.1458 313.25 96.6875C313.667 95.2292 314.208 93.5417 314.875 91.625C315.542 89.7083 316.292 87.6458 317.125 85.4375C317.958 83.2292 318.792 81.0208 319.625 78.8125C320.5 76.6042 321.312 74.4583 322.062 72.375C322.854 70.2917 323.521 68.4167 324.062 66.75L293.875 84.5C293.667 84.5417 293.5 84.5833 293.375 84.625C293.208 84.625 293.083 84.625 293 84.625C292.417 84.625 292 84.4792 291.75 84.1875C291.458 83.8542 291.312 83.4583 291.312 83C291.312 82.4167 291.542 81.7917 292 81.125C292.417 80.4167 293.042 79.8125 293.875 79.3125C300.125 75.6042 305.271 72.5625 309.312 70.1875C313.396 67.7708 316.667 65.8333 319.125 64.375C321.583 62.9167 323.417 61.8333 324.625 61.125C325.875 60.4167 326.812 59.8958 327.438 59.5625C328.021 59.2292 328.542 59 329 58.875C329.5 58.75 330.042 58.6875 330.625 58.6875C331.833 58.6875 332.812 59.0417 333.562 59.75C334.354 60.4583 334.75 61.25 334.75 62.125C334.75 63 334.479 64.2083 333.938 65.75C333.396 67.25 332.729 68.8958 331.938 70.6875C331.146 72.4792 330.333 74.3125 329.5 76.1875C328.667 78.0208 327.958 79.7292 327.375 81.3125C327.125 81.9375 326.917 82.4583 326.75 82.875C326.625 83.25 326.458 83.6875 326.25 84.1875C326.083 84.6875 325.833 85.3333 325.5 86.125C325.167 86.875 324.688 87.9375 324.062 89.3125C325.812 87.0625 327.854 84.7083 330.188 82.25C332.562 79.7917 335.125 77.3958 337.875 75.0625C340.667 72.6875 343.625 70.4375 346.75 68.3125C349.917 66.1875 353.167 64.3333 356.5 62.75C359.875 61.125 363.312 59.8542 366.812 58.9375C370.312 57.9792 373.792 57.5 377.25 57.5C379.375 57.5 380.833 57.9583 381.625 58.875C382.458 59.75 382.875 60.9583 382.875 62.5C382.875 63.75 382.646 65.2708 382.188 67.0625C381.729 68.8542 381.104 70.8125 380.312 72.9375C379.521 75.0208 378.625 77.2708 377.625 79.6875C376.625 82.0625 375.562 84.4792 374.438 86.9375C373.354 89.3542 372.25 91.7917 371.125 94.25C370.042 96.7083 369.021 99.0625 368.062 101.312C370.438 100.354 372.917 99.1042 375.5 97.5625C378.083 96.0208 380.833 94.2917 383.75 92.375C386.708 90.4583 389.812 88.3958 393.062 86.1875C396.354 83.9375 399.875 81.6458 403.625 79.3125C403.917 79.1458 404.312 79.0625 404.812 79.0625C405.812 79.0625 406.312 79.625 406.312 80.75C406.312 81.3333 406.083 81.9792 405.625 82.6875C405.167 83.3542 404.5 83.9583 403.625 84.5C398.667 87.5833 394.188 90.5208 390.188 93.3125C386.188 96.1042 382.521 98.5833 379.188 100.75C375.896 102.917 372.875 104.625 370.125 105.875C367.417 107.167 364.896 107.812 362.562 107.812C361.146 107.812 359.938 107.625 358.938 107.25C357.938 106.917 357.104 106.458 356.438 105.875C355.812 105.292 355.333 104.604 355 103.812C354.708 102.979 354.562 102.125 354.562 101.25C354.562 100.292 354.75 99.3542 355.125 98.4375C355.542 97.4792 356.104 96.4583 356.812 95.375C358.104 92.5417 359.542 89.5833 361.125 86.5C362.708 83.375 364.167 80.4167 365.5 77.625C366.833 74.8333 367.958 72.3542 368.875 70.1875C369.792 68.0208 370.25 66.4583 370.25 65.5C370.25 64.8333 369.979 64.5 369.438 64.5ZM511.562 84.5C509.229 85.875 506.958 87.2292 504.75 88.5625C502.583 89.8542 500.396 91.2292 498.188 92.6875C495.979 94.1458 493.708 95.7083 491.375 97.375C489.083 99.0417 486.667 100.917 484.125 103C482.042 108.417 479.771 114.021 477.312 119.812C474.896 125.604 472.333 131.25 469.625 136.75C466.958 142.292 464.167 147.521 461.25 152.438C458.333 157.396 455.333 161.729 452.25 165.438C449.208 169.146 446.104 172.083 442.938 174.25C439.812 176.458 436.688 177.562 433.562 177.562C431.979 177.562 430.625 177.375 429.5 177C428.375 176.625 427.438 176.125 426.688 175.5C425.938 174.875 425.375 174.167 425 173.375C424.667 172.625 424.5 171.854 424.5 171.062C424.5 169.854 424.854 168.083 425.562 165.75C426.271 163.458 427.417 160.75 429 157.625C430.583 154.5 432.625 151 435.125 147.125C437.667 143.25 440.729 139.104 444.312 134.688C447.896 130.312 452.042 125.729 456.75 120.938C461.5 116.146 466.896 111.25 472.938 106.25C475.354 100.625 477.417 95.8958 479.125 92.0625C480.833 88.2292 482.25 85.0417 483.375 82.5C484.542 79.9583 485.458 77.9375 486.125 76.4375C486.792 74.8958 487.312 73.625 487.688 72.625C485.938 74.875 483.854 77.3125 481.438 79.9375C479.021 82.5625 476.354 85.1875 473.438 87.8125C470.562 90.4375 467.479 92.9583 464.188 95.375C460.938 97.7917 457.583 99.9375 454.125 101.812C450.667 103.646 447.146 105.125 443.562 106.25C440.021 107.375 436.521 107.938 433.062 107.938C431.062 107.938 429.688 107.396 428.938 106.312C428.188 105.271 427.812 103.854 427.812 102.062C427.812 100.438 428.083 98.5208 428.625 96.3125C429.208 94.0625 429.938 91.6875 430.812 89.1875C431.688 86.6458 432.667 84.0625 433.75 81.4375C434.875 78.7708 435.979 76.2083 437.062 73.75C438.146 71.2917 439.146 69.0208 440.062 66.9375C441.021 64.8542 441.792 63.1042 442.375 61.6875C440.5 62.8958 438.125 64.3542 435.25 66.0625C432.417 67.7292 429.292 69.5625 425.875 71.5625C422.458 73.5208 418.833 75.6042 415 77.8125C411.208 80.0208 407.417 82.25 403.625 84.5C403.042 84.8333 402.521 85 402.062 85C401.562 85 401.167 84.8542 400.875 84.5625C400.542 84.2292 400.375 83.8125 400.375 83.3125C400.375 82.7292 400.625 82.1042 401.125 81.4375C401.583 80.7292 402.417 80.0208 403.625 79.3125C409.083 76.1042 413.854 73.2917 417.938 70.875C422.062 68.4167 425.646 66.2917 428.688 64.5C431.729 62.7083 434.312 61.2083 436.438 60C438.562 58.7917 440.375 57.8333 441.875 57.125C443.375 56.4167 444.625 55.9167 445.625 55.625C446.625 55.2917 447.542 55.125 448.375 55.125C449.625 55.125 450.646 55.3958 451.438 55.9375C452.229 56.4375 452.854 57.1042 453.312 57.9375C453.812 58.7292 454.146 59.6042 454.312 60.5625C454.479 61.4792 454.562 62.375 454.562 63.25C454.562 65.0417 454.104 67.125 453.188 69.5C452.312 71.8333 451.208 74.2708 449.875 76.8125C448.542 79.3542 447.104 81.9167 445.562 84.5C444.021 87.0833 442.583 89.5208 441.25 91.8125C439.917 94.1042 438.792 96.1458 437.875 97.9375C437 99.7292 436.562 101.104 436.562 102.062C436.562 103.021 437.042 103.5 438 103.5C439.5 103.5 441.438 103 443.812 102C446.229 100.958 448.896 99.5625 451.812 97.8125C454.729 96.0208 457.812 93.9375 461.062 91.5625C464.312 89.1458 467.542 86.5625 470.75 83.8125C473.958 81.0625 477.042 78.2083 480 75.25C483 72.2917 485.708 69.3333 488.125 66.375C488.292 66.125 488.396 65.6875 488.438 65.0625C488.521 64.3958 488.688 63.7292 488.938 63.0625C489.229 62.3542 489.667 61.75 490.25 61.25C490.875 60.7083 491.812 60.4375 493.062 60.4375C494.104 60.4375 494.938 60.5625 495.562 60.8125C496.188 61.0625 496.646 61.4167 496.938 61.875C497.271 62.2917 497.479 62.8125 497.562 63.4375C497.646 64.0208 497.688 64.6875 497.688 65.4375C497.688 65.3542 497.667 65.3125 497.625 65.3125C497.542 65.3125 497.229 66.0833 496.688 67.625C496.146 69.125 495.417 71.2292 494.5 73.9375C493.625 76.6042 492.542 79.7708 491.25 83.4375C490 87.1042 488.583 91.0833 487 95.375C490.792 92.625 494.688 89.9375 498.688 87.3125C502.729 84.6458 507.021 81.9792 511.562 79.3125C511.812 79.1875 512.062 79.125 512.312 79.125C512.771 79.125 513.188 79.3125 513.562 79.6875C513.979 80.0625 514.188 80.5417 514.188 81.125C514.188 81.625 513.979 82.1667 513.562 82.75C513.188 83.3333 512.521 83.9167 511.562 84.5ZM455.5 129.688C454.083 131.188 452.604 133.104 451.062 135.438C449.521 137.771 448 140.271 446.5 142.938C445 145.646 443.562 148.396 442.188 151.188C440.812 154.021 439.604 156.667 438.562 159.125C437.562 161.583 436.75 163.75 436.125 165.625C435.542 167.542 435.25 168.917 435.25 169.75C435.25 170.708 435.708 171.188 436.625 171.188C437.708 171.188 438.854 170.667 440.062 169.625C441.312 168.625 442.583 167.25 443.875 165.5C445.208 163.792 446.562 161.792 447.938 159.5C449.312 157.25 450.688 154.854 452.062 152.312C453.438 149.771 454.792 147.167 456.125 144.5C457.5 141.875 458.812 139.354 460.062 136.938C461.646 133.146 463.104 129.604 464.438 126.312C465.812 123.021 467.125 119.917 468.375 117C464.458 120.667 460.167 124.896 455.5 129.688Z" fill="white"/>
</svg>
